<svg xmlns="http://www.w3.org/2000/svg" viewBox="0 0 512 512">
  <defs>
    <linearGradient id="bg" x1="0" y1="0" x2="1" y2="1">
      <stop offset="0%" stop-color="#20364f"/>
      <stop offset="100%" stop-color="#0e1621"/>
    </linearGradient>
    <linearGradient id="accent" x1="0" y1="0" x2="1" y2="1">
      <stop offset="0%" stop-color="#7bc2ff"/>
      <stop offset="100%" stop-color="#5fa8ff"/>
    </linearGradient>
  </defs>
  <rect width="512" height="512" rx="112" fill="url(#bg)"/>
  <rect x="88" y="88" width="336" height="336" rx="84" fill="#17212b" stroke="#2b5278" stroke-width="16"/>
  <path d="M170 196c0-14.359 11.641-26 26-26h120c14.359 0 26 11.641 26 26v120c0 14.359-11.641 26-26 26H196c-14.359 0-26-11.641-26-26V196Z" fill="#101a26"/>
  <path d="M220 256c0-19.882 16.118-36 36-36s36 16.118 36 36-16.118 36-36 36-36-16.118-36-36Z" fill="url(#accent)"/>
  <path d="M256 112c8.837 0 16 7.163 16 16v44c0 8.837-7.163 16-16 16s-16-7.163-16-16v-44c0-8.837 7.163-16 16-16Zm0 212c8.837 0 16 7.163 16 16v44c0 8.837-7.163 16-16 16s-16-7.163-16-16v-44c0-8.837 7.163-16 16-16Zm144-84c8.837 0 16 7.163 16 16s-7.163 16-16 16h-44c-8.837 0-16-7.163-16-16s7.163-16 16-16h44Zm-244 0c8.837 0 16 7.163 16 16s-7.163 16-16 16h-44c-8.837 0-16-7.163-16-16s7.163-16 16-16h44Z" fill="#95a6b8"/>
  <path d="M329.539 205.088c-6.249-6.249-6.249-16.381 0-22.63l31.113-31.113c6.249-6.249 16.381-6.249 22.63 0s6.249 16.381 0 22.63l-31.113 31.113c-6.249 6.249-16.381 6.249-22.63 0Zm-201.821 201.82c-6.249-6.248-6.249-16.38 0-22.629l31.113-31.113c6.249-6.249 16.381-6.249 22.63 0 6.249 6.248 6.249 16.38 0 22.629l-31.113 31.113c-6.249 6.249-16.381 6.249-22.63 0Zm0-233.934c6.249-6.249 16.381-6.249 22.63 0l31.113 31.113c6.249 6.249 6.249 16.381 0 22.63-6.249 6.249-16.381 6.249-22.63 0l-31.113-31.113c-6.249-6.249-6.249-16.381 0-22.63Zm233.934 233.934c6.249-6.248 16.381-6.248 22.63 0 6.249 6.249 6.249 16.381 0 22.629-6.249 6.249-16.381 6.249-22.63 0l-31.113-31.113c-6.249-6.249-6.249-16.381 0-22.629 6.249-6.248 16.381-6.248 22.63 0l31.113 31.113Z" fill="#5fa8ff"/>
</svg>
